<?xml version="1.0" encoding="UTF-8"?>
<svg xmlns="http://www.w3.org/2000/svg" xmlns:xlink="http://www.w3.org/1999/xlink" width="80px" height="80px" viewBox="0 0 80 80" version="1.1">
<g id="surface1">
<path style=" stroke:none;fill-rule:nonzero;fill:rgb(100%,100%,100%);fill-opacity:1;" d="M 17.523438 19.640625 L 60.976562 19.640625 C 62.09375 19.640625 63 20.546875 63 21.664062 L 63 60.867188 C 63 61.984375 62.09375 62.890625 60.976562 62.890625 L 17.523438 62.890625 C 16.40625 62.890625 15.5 61.984375 15.5 60.867188 L 15.5 21.664062 C 15.5 20.546875 16.40625 19.640625 17.523438 19.640625 Z M 17.523438 19.640625 "/>
<path style=" stroke:none;fill-rule:nonzero;fill:rgb(20%,20%,20%);fill-opacity:1;" d="M 60.976562 64.90625 L 17.523438 64.90625 C 15.296875 64.90625 13.484375 63.09375 13.484375 60.867188 L 13.484375 21.664062 C 13.484375 19.4375 15.296875 17.625 17.523438 17.625 L 60.976562 17.625 C 63.203125 17.625 65.015625 19.4375 65.015625 21.664062 L 65.015625 60.867188 C 65.015625 63.09375 63.203125 64.90625 60.976562 64.90625 Z M 17.523438 21.664062 L 17.523438 60.867188 L 60.976562 60.867188 L 60.976562 21.664062 Z M 17.523438 21.664062 "/>
<path style=" stroke:none;fill-rule:nonzero;fill:rgb(100%,85.882354%,35.686275%);fill-opacity:1;" d="M 17.523438 21.640625 L 61.9375 21.640625 L 61.9375 33.523438 L 17.523438 33.523438 Z M 17.523438 21.640625 "/>
<path style=" stroke:none;fill-rule:nonzero;fill:rgb(20%,20%,20%);fill-opacity:1;" d="M 15.5 31.210938 L 65.015625 31.210938 L 65.015625 35.257812 L 15.5 35.257812 Z M 38.71875 49.90625 L 46.609375 42.015625 C 47.53125 41.09375 49.023438 41.09375 49.945312 42.015625 L 49.953125 42.023438 C 50.875 42.945312 50.875 44.4375 49.953125 45.359375 L 40.523438 54.78125 C 40.03125 55.273438 39.367188 55.507812 38.71875 55.46875 C 38.070312 55.507812 37.414062 55.273438 36.914062 54.78125 L 30.976562 48.84375 C 30.054688 47.921875 30.054688 46.429688 30.976562 45.507812 L 30.984375 45.5 C 31.90625 44.578125 33.398438 44.578125 34.320312 45.5 Z M 38.71875 49.90625 "/>
<path style=" stroke:none;fill-rule:nonzero;fill:rgb(20%,20%,20%);fill-opacity:1;" d="M 25.601562 13.03125 C 26.71875 13.03125 27.625 13.9375 27.625 15.054688 L 27.625 18.085938 L 23.585938 18.085938 L 23.585938 15.054688 C 23.585938 13.929688 24.492188 13.03125 25.601562 13.03125 Z M 51.882812 13.03125 C 53 13.03125 53.90625 13.9375 53.90625 15.054688 L 53.90625 18.085938 L 49.867188 18.085938 L 49.867188 15.054688 C 49.859375 13.929688 50.765625 13.03125 51.882812 13.03125 Z M 51.882812 13.03125 "/>
</g>
</svg>
