<?xml version="1.0" encoding="UTF-8"?>
<svg xmlns="http://www.w3.org/2000/svg" xmlns:xlink="http://www.w3.org/1999/xlink" width="80px" height="80px" viewBox="0 0 80 80" version="1.1">
<g id="surface1">
<path style=" stroke:none;fill-rule:nonzero;fill:rgb(100%,100%,100%);fill-opacity:1;" d="M 62.859375 37.023438 L 62.859375 59.882812 C 62.859375 61.59375 61.46875 62.984375 59.757812 62.984375 L 20.289062 62.984375 C 18.578125 62.984375 17.1875 61.59375 17.1875 59.882812 L 17.1875 37.023438 L 15.71875 37.023438 C 14.007812 37.023438 12.617188 35.632812 12.617188 33.921875 L 12.617188 28.585938 C 12.617188 26.875 14.007812 25.484375 15.71875 25.484375 L 64.320312 25.484375 C 66.03125 25.484375 67.421875 26.875 67.421875 28.585938 L 67.421875 33.921875 C 67.421875 35.632812 66.03125 37.023438 64.320312 37.023438 Z M 62.859375 37.023438 "/>
<path style=" stroke:none;fill-rule:nonzero;fill:rgb(20%,20%,20%);fill-opacity:1;" d="M 59.757812 65.054688 L 20.289062 65.054688 C 17.4375 65.054688 15.117188 62.734375 15.117188 59.882812 L 15.117188 39.054688 C 12.546875 38.757812 10.546875 36.5625 10.546875 33.921875 L 10.546875 28.585938 C 10.546875 25.734375 12.867188 23.414062 15.71875 23.414062 L 64.320312 23.414062 C 67.171875 23.414062 69.492188 25.734375 69.492188 28.585938 L 69.492188 33.921875 C 69.492188 36.570312 67.492188 38.757812 64.921875 39.054688 L 64.921875 59.882812 C 64.929688 62.734375 62.609375 65.054688 59.757812 65.054688 Z M 15.71875 27.554688 C 15.148438 27.554688 14.6875 28.015625 14.6875 28.585938 L 14.6875 33.921875 C 14.6875 34.492188 15.148438 34.953125 15.71875 34.953125 L 19.25 34.953125 L 19.25 59.882812 C 19.25 60.453125 19.710938 60.914062 20.28125 60.914062 L 59.757812 60.914062 C 60.328125 60.914062 60.789062 60.453125 60.789062 59.882812 L 60.789062 34.953125 L 64.320312 34.953125 C 64.890625 34.953125 65.351562 34.492188 65.351562 33.921875 L 65.351562 28.585938 C 65.351562 28.015625 64.890625 27.554688 64.320312 27.554688 Z M 15.71875 27.554688 "/>
<path style=" stroke:none;fill-rule:nonzero;fill:rgb(100%,85.882354%,35.686275%);fill-opacity:1;" d="M 36.976562 38.460938 L 43.070312 38.460938 L 43.070312 61.539062 L 36.976562 61.539062 Z M 36.976562 38.460938 "/>
<path style=" stroke:none;fill-rule:nonzero;fill:rgb(20%,20%,20%);fill-opacity:1;" d="M 18.710938 34.953125 L 61.335938 34.953125 L 61.335938 38.992188 L 18.710938 38.992188 Z M 18.710938 34.953125 "/>
<path style=" stroke:none;fill-rule:nonzero;fill:rgb(100%,85.882354%,35.686275%);fill-opacity:1;" d="M 23.886719 17.832031 L 25.421875 16.945312 C 26.632812 16.246094 28.175781 16.632812 28.914062 17.816406 L 32.125 22.988281 L 23.992188 23.171875 L 22.941406 21.363281 C 22.21875 20.128906 22.640625 18.550781 23.875 17.828125 C 23.878906 17.835938 23.878906 17.835938 23.886719 17.832031 Z M 23.886719 17.832031 "/>
<path style=" stroke:none;fill-rule:nonzero;fill:rgb(20%,20%,20%);fill-opacity:1;" d="M 21.648438 27.375 L 19.371094 23.460938 C 17.511719 20.257812 18.59375 16.132812 21.796875 14.273438 L 21.816406 14.261719 L 23.351562 13.375 C 26.511719 11.550781 30.5 12.550781 32.421875 15.644531 L 39.464844 26.96875 Z M 23.886719 17.832031 L 23.859375 17.847656 C 22.644531 18.554688 22.226562 20.140625 22.9375 21.375 L 23.988281 23.175781 L 32.125 22.988281 L 28.914062 17.816406 C 28.167969 16.621094 26.632812 16.246094 25.421875 16.945312 Z M 32.40625 38.460938 L 36.976562 38.460938 L 36.976562 61.539062 L 32.40625 61.539062 Z M 43.070312 38.460938 L 47.640625 38.460938 L 47.640625 61.539062 L 43.070312 61.539062 Z M 43.070312 38.460938 "/>
<path style=" stroke:none;fill-rule:nonzero;fill:rgb(100%,85.882354%,35.686275%);fill-opacity:1;" d="M 55.996094 17.832031 L 54.460938 16.945312 C 53.25 16.246094 51.707031 16.636719 50.972656 17.820312 L 47.757812 22.992188 L 55.890625 23.175781 L 56.9375 21.371094 C 57.660156 20.136719 57.238281 18.558594 56.003906 17.835938 Z M 55.996094 17.832031 "/>
<path style=" stroke:none;fill-rule:nonzero;fill:rgb(20%,20%,20%);fill-opacity:1;" d="M 58.230469 27.367188 L 40.414062 26.960938 L 47.457031 15.636719 C 49.382812 12.535156 53.367188 11.542969 56.527344 13.367188 L 58.136719 14.296875 C 59.660156 15.203125 60.75 16.644531 61.203125 18.359375 C 61.664062 20.09375 61.421875 21.902344 60.515625 23.457031 Z M 47.753906 23 L 55.886719 23.183594 L 56.9375 21.371094 C 57.28125 20.777344 57.382812 20.074219 57.203125 19.414062 C 57.03125 18.746094 56.601562 18.191406 56.011719 17.839844 L 54.460938 16.945312 C 53.242188 16.242188 51.710938 16.632812 50.972656 17.820312 Z M 47.753906 23 "/>
</g>
</svg>
