<?xml version="1.0" encoding="UTF-8"?>
<svg xmlns="http://www.w3.org/2000/svg" xmlns:xlink="http://www.w3.org/1999/xlink" width="80px" height="80px" viewBox="0 0 80 80" version="1.1">
<g id="surface1">
<path style=" stroke:none;fill-rule:nonzero;fill:rgb(100%,100%,100%);fill-opacity:1;" d="M 17.585938 19.679688 L 63.890625 19.679688 C 65 19.679688 65.90625 20.578125 65.90625 21.695312 L 65.90625 53.90625 C 65.90625 55.015625 65.007812 55.921875 63.890625 55.921875 L 17.585938 55.921875 C 16.476562 55.921875 15.570312 55.023438 15.570312 53.90625 L 15.570312 21.6875 C 15.570312 20.578125 16.476562 19.679688 17.585938 19.679688 Z M 17.585938 19.679688 "/>
<path style=" stroke:none;fill-rule:nonzero;fill:rgb(18.431373%,18.431373%,20%);fill-opacity:1;" d="M 63.898438 57.929688 L 17.585938 57.929688 C 15.367188 57.929688 13.5625 56.125 13.5625 53.90625 L 13.5625 21.6875 C 13.5625 19.46875 15.367188 17.664062 17.585938 17.664062 L 63.890625 17.664062 C 66.109375 17.664062 67.914062 19.46875 67.914062 21.6875 L 67.914062 53.90625 C 67.921875 56.125 66.117188 57.929688 63.898438 57.929688 Z M 17.585938 21.6875 L 17.585938 53.90625 L 63.890625 53.90625 L 63.890625 21.6875 Z M 17.585938 21.6875 "/>
<path style=" stroke:none;fill-rule:nonzero;fill:rgb(20%,20%,20%);fill-opacity:1;" d="M 29.664062 42.507812 C 29.195312 42.507812 28.71875 42.34375 28.335938 42.007812 C 27.5 41.273438 27.421875 40 28.15625 39.164062 L 35.359375 30.976562 C 35.734375 30.546875 36.28125 30.296875 36.851562 30.289062 C 37.414062 30.3125 37.96875 30.523438 38.359375 30.9375 L 43.898438 36.96875 L 51.5 28.28125 C 52.234375 27.445312 53.507812 27.359375 54.34375 28.09375 C 55.179688 28.828125 55.265625 30.101562 54.53125 30.9375 L 45.4375 41.3125 C 45.0625 41.742188 44.515625 41.992188 43.945312 42 C 43.390625 42.007812 42.828125 41.773438 42.4375 41.351562 L 36.898438 35.3125 L 31.179688 41.820312 C 30.78125 42.273438 30.226562 42.507812 29.664062 42.507812 Z M 29.664062 42.507812 "/>
<path style=" stroke:none;fill-rule:nonzero;fill:rgb(95.686275%,80.784315%,14.901961%);fill-opacity:1;" d="M 17.585938 49.875 L 63.890625 49.875 L 63.890625 53.898438 L 17.585938 53.898438 Z M 17.585938 49.875 "/>
<path style=" stroke:none;fill-rule:nonzero;fill:rgb(18.82353%,18.82353%,20%);fill-opacity:1;" d="M 16.578125 45.851562 L 65.90625 45.851562 L 65.90625 49.875 L 16.578125 49.875 Z M 16.578125 45.851562 "/>
<path style=" stroke:none;fill-rule:nonzero;fill:rgb(18.431373%,18.431373%,20%);fill-opacity:1;" d="M 21.617188 60.953125 L 58.867188 60.953125 C 59.976562 60.953125 60.882812 61.851562 60.882812 62.96875 C 60.882812 64.078125 59.984375 64.984375 58.867188 64.984375 L 21.617188 64.984375 C 20.507812 64.984375 19.601562 64.085938 19.601562 62.96875 C 19.601562 61.851562 20.5 60.953125 21.617188 60.953125 Z M 21.617188 60.953125 "/>
<path style=" stroke:none;fill-rule:nonzero;fill:rgb(18.431373%,18.431373%,20%);fill-opacity:1;" d="M 58.507812 64.976562 L 22.585938 64.976562 L 27.335938 53.90625 L 55.351562 53.90625 Z M 28.695312 60.953125 L 53.171875 60.953125 L 52.3125 57.929688 L 29.984375 57.929688 Z M 28.695312 60.953125 "/>
</g>
</svg>
