<?xml version="1.0" encoding="UTF-8"?>
<svg xmlns="http://www.w3.org/2000/svg" xmlns:xlink="http://www.w3.org/1999/xlink" width="80px" height="80px" viewBox="0 0 80 80" version="1.1">
<g id="surface1">
<path style=" stroke:none;fill-rule:nonzero;fill:rgb(100%,100%,100%);fill-opacity:1;" d="M 53.007812 34.90625 L 59.1875 34.90625 C 59.734375 34.90625 60.257812 35.125 60.640625 35.507812 L 66.835938 41.679688 C 67.226562 42.070312 67.445312 42.59375 67.445312 43.140625 L 67.445312 50.367188 C 67.445312 51.515625 66.523438 52.4375 65.382812 52.4375 L 53.007812 52.4375 C 51.867188 52.4375 50.945312 51.515625 50.945312 50.375 L 50.945312 36.96875 C 50.945312 35.835938 51.875 34.90625 53.007812 34.90625 Z M 53.007812 34.90625 "/>
<path style=" stroke:none;fill-rule:nonzero;fill:rgb(20%,20%,20%);fill-opacity:1;" d="M 65.382812 54.5 L 53.007812 54.5 C 50.726562 54.5 48.882812 52.65625 48.882812 50.375 L 48.882812 36.96875 C 48.882812 34.6875 50.726562 32.84375 53.007812 32.84375 L 59.1875 32.84375 C 60.289062 32.84375 61.320312 33.273438 62.101562 34.046875 L 68.289062 40.21875 C 69.0625 40.992188 69.5 42.046875 69.5 43.140625 L 69.5 50.367188 C 69.507812 52.65625 67.664062 54.5 65.382812 54.5 Z M 53.007812 36.96875 L 53.007812 50.375 L 65.382812 50.375 L 65.382812 43.148438 L 59.195312 36.976562 L 53.007812 36.976562 Z M 53.007812 36.96875 "/>
<path style=" stroke:none;fill-rule:nonzero;fill:rgb(100%,100%,100%);fill-opacity:1;" d="M 16.34375 21.507812 L 53.59375 21.507812 C 56.117188 21.507812 58.164062 23.554688 58.164062 26.078125 L 58.164062 49.921875 C 58.164062 52.445312 56.117188 54.492188 53.59375 54.492188 L 16.34375 54.492188 C 13.820312 54.492188 11.773438 52.445312 11.773438 49.921875 L 11.773438 26.078125 C 11.765625 23.554688 13.8125 21.507812 16.34375 21.507812 Z M 16.34375 21.507812 "/>
<path style=" stroke:none;fill-rule:nonzero;fill:rgb(20%,20%,20%);fill-opacity:1;" d="M 54.039062 54.5 L 15.890625 54.5 C 13.609375 54.5 11.765625 52.65625 11.765625 50.375 L 11.765625 25.632812 C 11.765625 23.351562 13.609375 21.507812 15.890625 21.507812 L 54.039062 21.507812 C 56.320312 21.507812 58.164062 23.351562 58.164062 25.632812 L 58.164062 50.375 C 58.164062 52.65625 56.320312 54.5 54.039062 54.5 Z M 15.890625 25.632812 L 15.890625 50.375 L 54.039062 50.375 L 54.039062 25.632812 Z M 15.890625 25.632812 "/>
<path style=" stroke:none;fill-rule:nonzero;fill:rgb(100%,100%,100%);fill-opacity:1;" d="M 22.9375 48.3125 C 25.921875 48.21875 28.351562 50.65625 28.257812 53.632812 C 28.171875 56.335938 25.976562 58.53125 23.273438 58.617188 C 20.289062 58.710938 17.859375 56.273438 17.953125 53.296875 C 18.046875 50.601562 20.242188 48.398438 22.9375 48.3125 Z M 22.9375 48.3125 "/>
<path style=" stroke:none;fill-rule:nonzero;fill:rgb(20%,20%,20%);fill-opacity:1;" d="M 23.445312 60.679688 C 19.195312 60.875 15.703125 57.375 15.898438 53.132812 C 16.070312 49.429688 19.070312 46.429688 22.765625 46.265625 C 27.015625 46.070312 30.507812 49.570312 30.3125 53.8125 C 30.148438 57.507812 27.148438 60.507812 23.445312 60.679688 Z M 23.390625 50.390625 C 21.460938 50.21875 19.859375 51.828125 20.03125 53.75 C 20.164062 55.226562 21.351562 56.414062 22.828125 56.546875 C 24.757812 56.71875 26.359375 55.109375 26.1875 53.1875 C 26.0625 51.710938 24.867188 50.515625 23.390625 50.390625 Z M 23.390625 50.390625 "/>
<path style=" stroke:none;fill-rule:nonzero;fill:rgb(100%,100%,100%);fill-opacity:1;" d="M 51.8125 49.34375 C 54.796875 49.25 57.226562 51.6875 57.132812 54.664062 C 57.046875 57.367188 54.851562 59.5625 52.148438 59.648438 C 49.164062 59.742188 46.734375 57.304688 46.828125 54.328125 C 46.914062 51.632812 49.109375 49.429688 51.8125 49.34375 Z M 51.8125 49.34375 "/>
<path style=" stroke:none;fill-rule:nonzero;fill:rgb(20%,20%,20%);fill-opacity:1;" d="M 52.320312 61.710938 C 48.070312 61.90625 44.578125 58.40625 44.773438 54.164062 C 44.945312 50.460938 47.945312 47.460938 51.640625 47.296875 C 55.890625 47.101562 59.382812 50.601562 59.1875 54.84375 C 59.015625 58.539062 56.023438 61.539062 52.320312 61.710938 Z M 52.257812 51.421875 C 50.328125 51.25 48.726562 52.859375 48.898438 54.78125 C 49.03125 56.257812 50.21875 57.445312 51.695312 57.578125 C 53.625 57.75 55.226562 56.140625 55.054688 54.21875 C 54.929688 52.742188 53.742188 51.546875 52.257812 51.421875 Z M 52.257812 51.421875 "/>
<path style=" stroke:none;fill-rule:nonzero;fill:rgb(20%,20%,20%);fill-opacity:1;" d="M 15.890625 31.8125 L 54.039062 31.8125 L 54.039062 35.9375 L 15.890625 35.9375 Z M 15.890625 31.8125 "/>
<path style=" stroke:none;fill-rule:nonzero;fill:rgb(54.901963%,66.666669%,100%);fill-opacity:1;" d="M 15.890625 25.632812 L 54.039062 25.632812 L 54.039062 31.8125 L 15.890625 31.8125 Z M 15.890625 25.632812 "/>
<path style=" stroke:none;fill-rule:nonzero;fill:rgb(20%,20%,20%);fill-opacity:1;" d="M 54.039062 41.09375 L 66.414062 41.09375 L 66.414062 45.21875 L 54.039062 45.21875 Z M 54.039062 41.09375 "/>
</g>
</svg>
